<svg xmlns="http://www.w3.org/2000/svg" width="1200" height="700" viewBox="0 0 1200 700">

  <!-- Fondo -->
  <rect width="100%" height="100%" fill="#f5f5f7"/>

  <!-- Header -->
  <g id="header">
    <text x="600" y="50" text-anchor="middle"
          font-size="24" font-family="Arial" fill="#333">
      E-commerce Tajmeel
    </text>
  </g>

  <!-- Sección 1 -->
  <g id="section-1">
    <text x="50" y="100" font-size="16" fill="#555">
      Section title →
    </text>

    <!-- Íconos circulares -->
    <g id="circles" transform="translate(50,140)">
      
      <!-- Repetición manual editable -->
      <!-- ITEM -->
      <g transform="translate(0,0)">
        <circle cx="0" cy="0" r="30" fill="#ddd"/>
        <text x="0" y="50" text-anchor="middle" font-size="10" fill="#777">Label</text>
      </g>

      <g transform="translate(80,0)">
        <circle cx="0" cy="0" r="30" fill="#ddd"/>
        <text x="0" y="50" text-anchor="middle" font-size="10" fill="#777">Label</text>
      </g>

      <g transform="translate(160,0)">
        <circle cx="0" cy="0" r="30" fill="#ddd"/>
        <text x="0" y="50" text-anchor="middle" font-size="10" fill="#777">Label</text>
      </g>

      <g transform="translate(240,0)">
        <circle cx="0" cy="0" r="30" fill="#ddd"/>
        <text x="0" y="50" text-anchor="middle" font-size="10" fill="#777">Label</text>
      </g>

      <g transform="translate(320,0)">
        <circle cx="0" cy="0" r="30" fill="#ddd"/>
        <text x="0" y="50" text-anchor="middle" font-size="10" fill="#777">Label</text>
      </g>

      <g transform="translate(400,0)">
        <circle cx="0" cy="0" r="30" fill="#ddd"/>
        <text x="0" y="50" text-anchor="middle" font-size="10" fill="#777">Label</text>
      </g>

      <g transform="translate(480,0)">
        <circle cx="0" cy="0" r="30" fill="#ddd"/>
        <text x="0" y="50" text-anchor="middle" font-size="10" fill="#777">Label</text>
      </g>

      <g transform="translate(560,0)">
        <circle cx="0" cy="0" r="30" fill="#ddd"/>
        <text x="0" y="50" text-anchor="middle" font-size="10" fill="#777">Label</text>
      </g>

      <g transform="translate(640,0)">
        <circle cx="0" cy="0" r="30" fill="#ddd"/>
        <text x="0" y="50" text-anchor="middle" font-size="10" fill="#777">Label</text>
      </g>

      <g transform="translate(720,0)">
        <circle cx="0" cy="0" r="30" fill="#ddd"/>
        <text x="0" y="50" text-anchor="middle" font-size="10" fill="#777">Label</text>
      </g>

    </g>
  </g>

  <!-- Sección 2 -->
  <g id="section-2">
    <text x="50" y="260" font-size="16" fill="#555">
      Section title →
    </text>

    <!-- Cards grandes -->
    <rect x="50" y="280" width="530" height="150" rx="20" fill="#e0e0e0"/>
    <rect x="620" y="280" width="530" height="150" rx="20" fill="#e0e0e0"/>
  </g>

  <!-- Sección 3 -->
  <g id="section-3">
    <text x="50" y="470" font-size="16" fill="#555">
      Section title →
    </text>

    <!-- Mini cards -->
    <g transform="translate(50,500)">
      <rect x="0" y="0" width="80" height="80" rx="10" fill="#ddd"/>
      <rect x="100" y="0" width="80" height="80" rx="10" fill="#ddd"/>
      <rect x="200" y="0" width="80" height="80" rx="10" fill="#ddd"/>
      <rect x="300" y="0" width="80" height="80" rx="10" fill="#ddd"/>
      <rect x="400" y="0" width="80" height="80" rx="10" fill="#ddd"/>
      <rect x="500" y="0" width="80" height="80" rx="10" fill="#ddd"/>
      <rect x="600" y="0" width="80" height="80" rx="10" fill="#ddd"/>
      <rect x="700" y="0" width="80" height="80" rx="10" fill="#ddd"/>
    </g>
  </g>

</svg>